<?xml version="1.0" encoding="UTF-8" standalone="no"?>
<svg
   xmlns:dc="http://purl.org/dc/elements/1.1/"
   xmlns:cc="http://creativecommons.org/ns#"
   xmlns:rdf="http://www.w3.org/1999/02/22-rdf-syntax-ns#"
   xmlns:svg="http://www.w3.org/2000/svg"
   xmlns="http://www.w3.org/2000/svg"
   xmlns:sodipodi="http://sodipodi.sourceforge.net/DTD/sodipodi-0.dtd"
   xmlns:inkscape="http://www.inkscape.org/namespaces/inkscape"
   class="svglite"
   width="360.00pt"
   height="144.00pt"
   viewBox="0 0 360.00 144.00"
   version="1.1"
   id="svg267"
   sodipodi:docname="Max_DHW_plot.svg"
   inkscape:version="0.92.5 (2060ec1f9f, 2020-04-08)">
  <metadata
     id="metadata271">
    <rdf:RDF>
      <cc:Work
         rdf:about="">
        <dc:format>image/svg+xml</dc:format>
        <dc:type
           rdf:resource="http://purl.org/dc/dcmitype/StillImage" />
      </cc:Work>
    </rdf:RDF>
  </metadata>
  <sodipodi:namedview
     pagecolor="#ffffff"
     bordercolor="#666666"
     borderopacity="1"
     objecttolerance="10"
     gridtolerance="10"
     guidetolerance="10"
     inkscape:pageopacity="0"
     inkscape:pageshadow="2"
     inkscape:window-width="1844"
     inkscape:window-height="1016"
     id="namedview269"
     showgrid="false"
     inkscape:zoom="2"
     inkscape:cx="240"
     inkscape:cy="96"
     inkscape:window-x="1356"
     inkscape:window-y="27"
     inkscape:window-maximized="1"
     inkscape:current-layer="g83" />
  <defs
     id="defs4">
    <style
       type="text/css"
       id="style2"><![CDATA[
    .svglite line, .svglite polyline, .svglite polygon, .svglite path, .svglite rect, .svglite circle {
      fill: none;
      stroke: #000000;
      stroke-linecap: round;
      stroke-linejoin: round;
      stroke-miterlimit: 10.00;
    }
  ]]></style>
  </defs>
  <rect
     width="100%"
     height="100%"
     style="stroke: none; fill: #FFFFFF;"
     id="rect6" />
  <defs
     id="defs11">
    <clipPath
       id="cpMC4wMHwzNjAuMDB8MC4wMHwxNDQuMDA=">
      <rect
         x="0.00"
         y="0.00"
         width="360.00"
         height="144.00"
         id="rect8" />
    </clipPath>
  </defs>
  <g
     clip-path="url(#cpMC4wMHwzNjAuMDB8MC4wMHwxNDQuMDA=)"
     id="g13" />
  <defs
     id="defs18">
    <clipPath
       id="cpMC4wMHwxMjAuMDB8MC4wMHwxNDQuMDA=">
      <rect
         x="0.00"
         y="0.00"
         width="120.00"
         height="144.00"
         id="rect15" />
    </clipPath>
  </defs>
  <g
     clip-path="url(#cpMC4wMHwxMjAuMDB8MC4wMHwxNDQuMDA=)"
     id="g22">
    <rect
       x="0.00"
       y="0.00"
       width="120.00"
       height="144.00"
       style="stroke-width: 1.07; stroke: #FFFFFF; fill: #FFFFFF;"
       id="rect20" />
  </g>
  <g
     clip-path="url(#cpMC4wMHwzNjAuMDB8MC4wMHwxNDQuMDA=)"
     id="g24" />
  <defs
     id="defs29">
    <clipPath
       id="cpNDMuNzV8MTE0LjUyfDUuNDh8MTExLjE2">
      <rect
         x="43.75"
         y="5.48"
         width="70.77"
         height="105.68"
         id="rect26" />
    </clipPath>
  </defs>
  <g
     clip-path="url(#cpNDMuNzV8MTE0LjUyfDUuNDh8MTExLjE2)"
     id="g41">
    <rect
       x="43.75"
       y="5.48"
       width="70.77"
       height="105.68"
       style="stroke-width: 1.07; stroke: none; fill: #FFFFFF;"
       id="rect31" />
    <line
       x1="75.63"
       y1="111.16"
       x2="75.63"
       y2="5.48"
       style="stroke-width: 1.07; stroke-dasharray: 5.69,5.69; stroke-linecap: butt;"
       id="line33" />
    <polyline
       points="46.97,98.75 47.10,98.75 47.23,98.75 47.36,98.75 47.49,98.75 47.63,98.75 47.76,98.75 47.89,98.75 48.02,98.75 48.15,98.75 48.29,98.75 48.42,98.75 48.55,98.75 48.68,98.75 48.81,98.75 48.95,98.75 49.08,98.75 49.21,98.75 49.34,98.75 49.48,98.75 49.61,98.75 49.74,98.75 49.87,98.75 50.00,98.75 50.14,98.75 50.27,98.75 50.40,98.75 50.53,98.75 50.66,98.75 50.80,98.75 50.93,98.75 51.06,98.75 51.19,98.75 51.32,98.75 51.46,98.75 51.59,98.75 51.72,98.75 51.85,98.75 51.99,98.75 52.12,98.75 52.25,98.75 52.38,98.75 52.51,98.75 52.65,98.75 52.78,98.75 52.91,98.75 53.04,98.75 53.17,100.51 53.31,102.10 53.44,103.56 53.57,103.56 53.70,103.56 53.84,103.56 53.97,103.56 54.10,103.56 54.23,103.56 54.36,103.56 54.50,103.56 54.63,103.56 54.76,103.56 54.89,103.56 55.02,103.56 55.16,103.56 55.29,103.56 55.42,103.56 55.55,103.56 55.68,103.56 55.82,103.56 55.95,103.56 56.08,103.56 56.21,103.56 56.35,103.56 56.48,103.56 56.61,103.56 56.74,103.56 56.87,103.56 57.01,103.56 57.14,103.56 57.27,103.56 57.40,103.56 57.53,103.56 57.67,103.56 57.80,104.95 57.93,106.36 58.06,106.36 58.19,106.36 58.33,106.36 58.46,106.36 58.59,106.36 58.72,106.36 58.86,106.36 58.99,106.36 59.12,106.36 59.25,106.36 59.38,106.36 59.52,106.36 59.65,106.36 59.78,106.36 59.91,106.36 60.04,106.36 60.18,106.36 60.31,106.36 60.44,106.36 60.57,106.36 60.70,106.36 60.84,106.36 60.97,106.36 61.10,106.36 61.23,106.36 61.37,106.36 61.50,106.36 61.63,106.36 61.76,106.36 61.89,106.36 62.03,106.36 62.16,106.36 62.29,106.36 62.42,106.36 62.55,106.36 62.69,106.36 62.82,106.36 62.95,106.36 63.08,106.36 63.21,106.36 63.35,104.81 63.48,103.20 63.61,103.20 63.74,103.20 63.88,103.20 64.01,103.20 64.14,103.20 64.27,101.62 64.40,100.02 64.54,100.02 64.67,100.02 64.80,100.02 64.93,100.02 65.06,100.02 65.20,100.02 65.33,100.02 65.46,100.02 65.59,100.02 65.73,100.02 65.86,100.02 65.99,100.02 66.12,100.02 66.25,100.02 66.39,100.02 66.52,100.02 66.65,100.02 66.78,100.02 66.91,100.02 67.05,100.02 67.18,100.02 67.31,100.02 67.44,100.02 67.57,100.02 67.71,100.02 67.84,100.02 67.97,100.02 68.10,100.02 68.24,100.02 68.37,100.02 68.50,98.25 68.63,96.75 68.76,95.01 68.90,93.11 69.03,91.07 69.16,89.25 69.29,87.60 69.42,87.60 69.56,85.58 69.69,83.90 69.82,83.90 69.95,83.90 70.08,83.90 70.22,83.90 70.35,83.90 70.48,83.90 70.61,83.90 70.75,82.45 70.88,81.07 71.01,81.07 71.14,81.07 71.27,81.07 71.41,81.07 71.54,81.07 71.67,81.07 71.80,81.07 71.93,79.50 72.07,79.50 72.20,79.50 72.33,79.50 72.46,79.50 72.59,79.50 72.73,79.50 72.86,79.50 72.99,79.50 73.12,79.50 73.26,78.12 73.39,76.05 73.52,74.11 73.65,72.39 73.78,72.39 73.92,72.39 74.05,70.87 74.18,69.15 74.31,66.27 74.44,65.21 74.58,64.87 74.71,62.89 74.84,60.82 74.97,58.78 75.11,57.16 75.24,53.78 75.37,51.55 75.50,49.26 75.63,47.81 75.77,47.81 75.90,47.81 76.03,47.81 76.16,47.81 76.29,47.81 76.43,47.81 76.56,47.81 76.69,47.81 76.82,47.81 76.95,47.81 77.09,47.81 77.22,47.81 77.35,47.81 77.48,47.81 77.62,47.81 77.75,47.81 77.88,47.81 78.01,47.81 78.14,47.81 78.28,47.81 78.41,47.81 78.54,47.81 78.67,47.81 78.80,47.81 78.94,46.40 79.07,44.90 79.20,42.84 79.33,40.23 79.46,37.98 79.60,38.08 79.73,37.96 79.86,39.69 79.99,41.59 80.13,42.10 80.26,42.47 80.39,44.13 80.52,42.21 80.65,42.73 80.79,44.42 80.92,44.42 81.05,44.42 81.18,44.42 81.31,44.42 81.45,44.42 81.58,44.42 81.71,44.42 81.84,45.86 81.97,47.24 82.11,47.24 82.24,47.24 82.37,47.24 82.50,47.24 82.64,45.86 82.77,45.86 82.90,45.86 83.03,47.44 83.16,47.44 83.30,47.44 83.43,47.44 83.56,47.44 83.69,47.44 83.82,47.44 83.96,47.44 84.09,45.53 84.22,43.40 84.35,42.93 84.48,43.59 84.62,45.53 84.75,47.26 84.88,47.26 85.01,47.26 85.15,48.78 85.28,50.50 85.41,53.37 85.54,55.98 85.67,57.93 85.81,59.92 85.94,61.98 86.07,64.02 86.20,65.65 86.33,69.02 86.47,72.84 86.60,76.73 86.73,78.18 86.86,78.18 87.00,78.18 87.13,78.18 87.26,78.18 87.39,78.18 87.52,78.18 87.66,76.72 87.79,75.22 87.92,73.77 88.05,73.77 88.18,71.89 88.32,70.42 88.45,70.42 88.58,69.00 88.71,67.49 88.84,67.49 88.98,67.49 89.11,67.49 89.24,67.49 89.37,67.49 89.51,66.11 89.64,64.65 89.77,62.91 89.90,61.33 90.03,61.27 90.17,61.25 90.30,63.30 90.43,65.91 90.56,65.90 90.69,64.80 90.83,63.63 90.96,61.31 91.09,59.16 91.22,58.07 91.35,57.57 91.49,55.67 91.62,55.64 91.75,57.13 91.88,57.13 92.02,57.13 92.15,57.13 92.28,55.13 92.41,53.02 92.54,53.02 92.68,53.02 92.81,53.02 92.94,53.02 93.07,53.02 93.20,53.02 93.34,53.02 93.47,53.02 93.60,53.02 93.73,54.40 93.86,54.40 94.00,54.40 94.13,54.40 94.26,54.40 94.39,54.40 94.53,52.19 94.66,50.01 94.79,48.33 94.92,45.62 95.05,42.89 95.19,42.22 95.32,42.20 95.45,42.33 95.58,42.20 95.71,40.15 95.85,37.71 95.98,35.32 96.11,33.64 96.24,33.64 96.37,33.64 96.51,33.64 96.64,33.64 96.77,33.64 96.90,33.64 97.04,33.64 97.17,33.64 97.30,33.64 97.43,33.64 97.56,33.64 97.70,33.64 97.83,33.64 97.96,33.64 98.09,33.64 98.22,33.64 98.36,33.64 98.49,33.64 98.62,33.64 98.75,35.10 98.89,36.60 99.02,38.05 99.15,38.05 99.28,39.93 99.41,41.40 99.55,41.40 99.68,42.82 99.81,44.33 99.94,44.33 100.07,44.33 100.21,44.33 100.34,44.33 100.47,44.33 100.60,45.71 100.73,47.17 100.87,48.91 101.00,50.49 101.13,51.95 101.26,53.49 101.40,53.49 101.53,53.49 101.66,55.74 101.79,58.51 101.92,61.30 102.06,63.63 102.19,65.78 102.32,68.40 102.45,70.35 102.58,72.25 102.72,74.20 102.85,74.20 102.98,74.20 103.11,74.20 103.24,74.20 103.38,76.19 103.51,78.30 103.64,78.30 103.77,78.30 103.91,78.30 104.04,78.30 104.17,78.30 104.30,78.30 104.43,78.30 104.57,78.30 104.70,78.30 104.83,78.30 104.96,78.30 105.09,78.30 105.23,78.30 105.36,78.30 105.49,78.30 105.62,80.52 105.75,82.70 105.89,84.38 106.02,87.09 106.15,89.81 106.28,92.39 106.42,94.54 106.55,96.26 106.68,97.79 106.81,99.84 106.94,102.28 107.08,104.68 107.21,106.36 107.34,106.36 107.47,106.36 107.60,106.36 107.74,106.36 107.87,106.36 108.00,106.36 108.13,106.36 108.27,106.36 108.40,106.36 108.53,106.36 108.66,106.36 108.79,106.36 108.93,106.36 109.06,106.36 109.19,106.36 109.32,106.36 109.45,106.36 109.59,106.36 109.72,106.36 109.85,106.36 109.98,106.36 110.11,106.36 110.25,106.36 110.38,106.36 110.51,106.36 110.64,106.36 110.78,106.36 110.91,106.36 111.04,106.36 111.17,106.36 111.30,106.36 "
       style="stroke-width: 1.07; stroke-linecap: butt;"
       id="polyline35" />
    <polyline
       points="51.85,98.75 51.99,98.75 52.12,98.75 52.25,98.75 52.38,98.75 52.51,98.75 52.65,98.75 52.78,98.75 52.91,98.75 53.04,98.75 53.17,98.75 53.31,98.75 53.44,98.75 53.57,98.75 53.70,98.75 53.84,98.75 53.97,98.75 54.10,98.75 54.23,98.75 54.36,98.75 54.50,98.75 54.63,98.75 54.76,98.75 54.89,98.75 55.02,98.75 55.16,98.75 55.29,98.75 55.42,98.75 55.55,98.75 55.68,98.75 55.82,98.75 55.95,98.75 56.08,98.75 56.21,98.75 56.35,98.75 56.48,98.75 56.61,98.75 56.74,98.75 56.87,98.75 57.01,98.75 57.14,98.75 57.27,98.75 57.40,98.75 57.53,98.75 57.67,98.75 57.80,98.75 57.93,98.75 58.06,98.75 58.19,98.75 58.33,98.75 58.46,98.75 58.59,98.75 58.72,98.75 58.86,98.75 58.99,98.75 59.12,98.75 59.25,98.75 59.38,98.75 59.52,98.75 59.65,98.75 59.78,98.75 59.91,98.75 60.04,98.75 60.18,98.75 60.31,98.75 60.44,98.75 60.57,98.75 60.70,98.75 60.84,98.75 60.97,98.75 61.10,98.75 61.23,98.75 61.37,98.75 61.50,98.75 61.63,98.75 61.76,98.75 61.89,98.75 62.03,98.75 62.16,98.75 62.29,98.75 62.42,98.75 62.55,98.75 62.69,98.75 62.82,98.75 62.95,98.75 63.08,98.75 63.21,98.75 63.35,98.75 63.48,98.75 63.61,98.75 63.74,98.75 63.88,98.75 64.01,98.75 64.14,98.75 64.27,98.75 64.40,98.75 64.54,98.75 64.67,98.75 64.80,98.75 64.93,98.75 65.06,98.75 65.20,98.75 65.33,98.75 65.46,98.75 65.59,98.75 65.73,98.75 65.86,98.75 65.99,98.75 66.12,98.75 66.25,98.75 66.39,98.75 66.52,98.75 66.65,98.75 66.78,98.75 66.91,98.75 67.05,98.75 67.18,98.75 67.31,98.75 67.44,98.75 67.57,98.75 67.71,98.75 67.84,98.75 67.97,98.75 68.10,98.75 68.24,98.75 68.37,98.75 68.50,98.25 68.63,96.75 68.76,95.01 68.90,93.11 69.03,91.07 69.16,89.25 69.29,87.60 69.42,87.60 69.56,85.58 69.69,83.90 69.82,83.90 69.95,83.90 70.08,83.90 70.22,83.90 70.35,83.90 70.48,83.90 70.61,83.90 70.75,82.45 70.88,81.07 71.01,81.07 71.14,81.07 71.27,81.07 71.41,81.07 71.54,81.07 71.67,81.07 71.80,81.07 71.93,79.50 72.07,79.50 72.20,79.50 72.33,79.50 72.46,79.50 72.59,79.50 72.73,79.50 72.86,79.50 72.99,79.50 73.12,79.50 73.26,78.12 73.39,76.05 73.52,74.11 73.65,72.39 73.78,72.39 73.92,72.39 74.05,70.87 74.18,69.15 74.31,66.27 74.44,65.21 74.58,64.87 74.71,62.89 74.84,60.82 74.97,58.78 75.11,57.16 75.24,53.78 75.37,51.55 75.50,49.26 75.63,47.81 75.77,47.81 75.90,47.81 76.03,47.81 76.16,47.81 76.29,47.81 76.43,47.81 76.56,47.81 76.69,47.81 76.82,47.81 76.95,47.81 77.09,47.81 77.22,47.81 77.35,47.81 77.48,47.81 77.62,47.81 77.75,47.81 77.88,47.81 78.01,47.81 78.14,47.81 78.28,47.81 78.41,47.81 78.54,47.81 78.67,47.81 78.80,47.81 78.94,46.40 79.07,44.90 79.20,42.84 79.33,40.23 79.46,37.98 79.60,37.98 79.73,37.96 79.86,37.96 79.99,37.96 80.13,37.96 80.26,37.96 80.39,37.96 80.52,37.96 80.65,37.96 80.79,37.96 80.92,37.96 81.05,37.96 81.18,37.96 81.31,37.96 81.45,37.96 81.58,37.96 81.71,37.96 81.84,37.96 81.97,37.96 82.11,37.96 82.24,37.96 82.37,37.96 82.50,37.96 82.64,37.96 82.77,37.96 82.90,37.96 83.03,37.96 83.16,37.96 83.30,37.96 83.43,37.96 83.56,37.96 83.69,37.96 83.82,37.96 83.96,37.96 84.09,37.96 84.22,37.96 84.35,37.96 84.48,37.96 84.62,37.96 84.75,37.96 84.88,37.96 85.01,37.96 85.15,37.96 85.28,37.96 85.41,37.96 85.54,37.96 85.67,37.96 85.81,37.96 85.94,37.96 86.07,37.96 86.20,37.96 86.33,37.96 86.47,37.96 86.60,37.96 86.73,37.96 86.86,37.96 87.00,37.96 87.13,37.96 87.26,37.96 87.39,37.96 87.52,37.96 87.66,37.96 87.79,37.96 87.92,37.96 88.05,37.96 88.18,37.96 88.32,37.96 88.45,37.96 88.58,37.96 88.71,37.96 88.84,37.96 88.98,37.96 89.11,37.96 89.24,37.96 89.37,37.96 89.51,37.96 89.64,37.96 89.77,37.96 89.90,37.96 90.03,37.96 90.17,37.96 90.30,37.96 90.43,37.96 90.56,37.96 90.69,37.96 90.83,37.96 90.96,37.96 91.09,37.96 91.22,37.96 91.35,37.96 91.49,37.96 91.62,37.96 91.75,37.96 91.88,37.96 92.02,37.96 92.15,37.96 92.28,37.96 92.41,37.96 92.54,37.96 92.68,37.96 92.81,37.96 92.94,37.96 93.07,37.96 93.20,37.96 93.34,37.96 93.47,37.96 93.60,37.96 93.73,37.96 93.86,37.96 94.00,37.96 94.13,37.96 94.26,37.96 94.39,37.96 94.53,37.96 94.66,37.96 94.79,37.96 94.92,37.96 95.05,37.96 95.19,37.96 95.32,37.96 95.45,37.96 95.58,37.96 95.71,37.96 95.85,37.71 95.98,35.32 96.11,33.64 96.24,33.64 96.37,33.64 96.51,33.64 96.64,33.64 96.77,33.64 96.90,33.64 97.04,33.64 97.17,33.64 97.30,33.64 97.43,33.64 97.56,33.64 97.70,33.64 97.83,33.64 97.96,33.64 98.09,33.64 98.22,33.64 98.36,33.64 98.49,33.64 98.62,33.64 98.75,33.64 98.89,33.64 99.02,33.64 99.15,33.64 99.28,33.64 99.41,33.64 99.55,33.64 99.68,33.64 99.81,33.64 99.94,33.64 100.07,33.64 100.21,33.64 100.34,33.64 100.47,33.64 100.60,33.64 100.73,33.64 100.87,33.64 101.00,33.64 101.13,33.64 101.26,33.64 101.40,33.64 101.53,33.64 101.66,33.64 101.79,33.64 101.92,33.64 102.06,33.64 102.19,33.64 102.32,33.64 102.45,33.64 102.58,33.64 102.72,33.64 102.85,33.64 102.98,33.64 103.11,33.64 103.24,33.64 103.38,33.64 103.51,33.64 103.64,33.64 103.77,33.64 103.91,33.64 104.04,33.64 104.17,33.64 104.30,33.64 104.43,33.64 104.57,33.64 104.70,33.64 104.83,33.64 104.96,33.64 105.09,33.64 105.23,33.64 105.36,33.64 105.49,33.64 105.62,33.64 105.75,33.64 105.89,33.64 106.02,33.64 106.15,33.64 106.28,33.64 106.42,33.64 106.55,33.64 106.68,33.64 106.81,33.64 106.94,33.64 107.08,33.64 107.21,33.64 107.34,33.64 107.47,33.64 107.60,33.64 107.74,33.64 107.87,33.64 108.00,33.64 108.13,33.64 108.27,33.64 108.40,33.64 108.53,33.64 108.66,33.64 108.79,33.64 108.93,33.64 109.06,33.64 109.19,33.64 109.32,33.64 109.45,33.64 109.59,33.64 109.72,33.64 109.85,33.64 109.98,33.64 110.11,33.64 110.25,33.64 110.38,33.64 110.51,33.64 110.64,33.64 110.78,33.64 110.91,33.64 111.04,33.64 111.17,33.64 111.30,33.64 "
       style="stroke-width: 1.07; stroke: #FF0000; stroke-linecap: butt;"
       id="polyline37" />
    <rect
       x="43.75"
       y="5.48"
       width="70.77"
       height="105.68"
       style="stroke-width: 1.07;"
       id="rect39" />
  </g>
  <g
     clip-path="url(#cpMC4wMHwzNjAuMDB8MC4wMHwxNDQuMDA=)"
     id="g83">
    <polyline
       points="43.75,111.16 43.75,5.48 "
       style="stroke-width: 1.07; stroke-linecap: butt;"
       id="polyline43" />
    <text
       x="38.82"
       y="109.57"
       text-anchor="end"
       style="font-size: 8.80px; fill: #4D4D4D; font-family: Arial;"
       textLength="13.98px"
       lengthAdjust="spacingAndGlyphs"
       id="text45">0.0</text>
    <text
       x="38.82"
       y="85.55"
       text-anchor="end"
       style="font-size: 8.80px; fill: #4D4D4D; font-family: Arial;"
       textLength="13.98px"
       lengthAdjust="spacingAndGlyphs"
       id="text47">2.5</text>
    <text
       x="38.82"
       y="61.53"
       text-anchor="end"
       style="font-size: 8.80px; fill: #4D4D4D; font-family: Arial;"
       textLength="13.98px"
       lengthAdjust="spacingAndGlyphs"
       id="text49">5.0</text>
    <text
       x="38.82"
       y="37.51"
       text-anchor="end"
       style="font-size: 8.80px; fill: #4D4D4D; font-family: Arial;"
       textLength="13.98px"
       lengthAdjust="spacingAndGlyphs"
       id="text51">7.5</text>
    <text
       x="38.82"
       y="13.49"
       text-anchor="end"
       style="font-size: 8.80px; fill: #4D4D4D; font-family: Arial;"
       textLength="19.58px"
       lengthAdjust="spacingAndGlyphs"
       id="text53">10.0</text>
    <polyline
       points="41.01,106.36 43.75,106.36 "
       style="stroke-width: 1.07; stroke: #333333; stroke-linecap: butt;"
       id="polyline55" />
    <polyline
       points="41.01,82.34 43.75,82.34 "
       style="stroke-width: 1.07; stroke: #333333; stroke-linecap: butt;"
       id="polyline57" />
    <polyline
       points="41.01,58.32 43.75,58.32 "
       style="stroke-width: 1.07; stroke: #333333; stroke-linecap: butt;"
       id="polyline59" />
    <polyline
       points="41.01,34.30 43.75,34.30 "
       style="stroke-width: 1.07; stroke: #333333; stroke-linecap: butt;"
       id="polyline61" />
    <polyline
       points="41.01,10.28 43.75,10.28 "
       style="stroke-width: 1.07; stroke: #333333; stroke-linecap: butt;"
       id="polyline63" />
    <polyline
       points="43.75,111.16 114.52,111.16 "
       style="stroke-width: 1.07; stroke-linecap: butt;"
       id="polyline65" />
    <text
       x="79.13"
       y="135.52"
       text-anchor="middle"
       style="font-size: 11.00px; font-family: Arial;"
       textLength="3.50px"
       lengthAdjust="spacingAndGlyphs"
       id="text79" />
    <text
       transform="translate(13.50,58.32) rotate(-90)"
       text-anchor="middle"
       style="font-size: 11.00px; font-family: Arial;"
       textLength="27.63px"
       lengthAdjust="spacingAndGlyphs"
       id="text81">DHW</text>
  </g>
  <defs
     id="defs88">
    <clipPath
       id="cpMTIwLjAwfDI0MC4wMHwwLjAwfDE0NC4wMA==">
      <rect
         x="120.00"
         y="0.00"
         width="120.00"
         height="144.00"
         id="rect85" />
    </clipPath>
  </defs>
  <g
     clip-path="url(#cpMTIwLjAwfDI0MC4wMHwwLjAwfDE0NC4wMA==)"
     id="g92">
    <rect
       x="120.00"
       y="0.00"
       width="120.00"
       height="144.00"
       style="stroke-width: 1.07; stroke: #FFFFFF; fill: #FFFFFF;"
       id="rect90" />
  </g>
  <g
     clip-path="url(#cpMC4wMHwzNjAuMDB8MC4wMHwxNDQuMDA=)"
     id="g94" />
  <defs
     id="defs99">
    <clipPath
       id="cpMTYzLjc1fDIzNC41Mnw1LjQ4fDExMS4xNg==">
      <rect
         x="163.75"
         y="5.48"
         width="70.77"
         height="105.68"
         id="rect96" />
    </clipPath>
  </defs>
  <g
     clip-path="url(#cpMTYzLjc1fDIzNC41Mnw1LjQ4fDExMS4xNg==)"
     id="g117">
    <rect
       x="163.75"
       y="5.48"
       width="70.77"
       height="105.68"
       style="stroke-width: 1.07; stroke: none; fill: #FFFFFF;"
       id="rect101" />
    <line
       x1="184.07"
       y1="111.16"
       x2="184.07"
       y2="5.48"
       style="stroke-width: 1.07; stroke-dasharray: 5.69,5.69; stroke-linecap: butt;"
       id="line103" />
    <line
       x1="208.50"
       y1="111.16"
       x2="208.50"
       y2="5.48"
       style="stroke-width: 1.07; stroke-dasharray: 5.69,5.69; stroke-linecap: butt;"
       id="line105" />
    <polyline
       points="166.97,106.36 167.13,106.36 167.29,106.36 167.45,106.36 167.62,106.36 167.78,106.36 167.94,106.36 168.11,106.36 168.27,106.36 168.43,106.36 168.59,106.36 168.76,106.36 168.92,106.36 169.08,106.36 169.25,104.62 169.41,102.61 169.57,102.61 169.73,102.61 169.90,102.61 170.06,102.61 170.22,101.19 170.39,99.78 170.55,98.11 170.71,96.69 170.87,96.69 171.04,96.69 171.20,96.69 171.36,96.69 171.53,95.12 171.69,93.52 171.85,91.91 172.01,90.32 172.18,90.32 172.34,90.32 172.50,90.32 172.67,90.32 172.83,90.32 172.99,88.87 173.15,87.14 173.32,85.60 173.48,85.60 173.64,85.60 173.81,85.60 173.97,85.60 174.13,85.60 174.29,85.60 174.46,85.60 174.62,85.60 174.78,85.60 174.95,83.57 175.11,82.01 175.27,80.30 175.44,78.35 175.60,76.37 175.76,74.41 175.92,72.07 176.09,69.77 176.25,67.65 176.41,65.65 176.58,62.59 176.74,62.59 176.90,62.59 177.06,62.59 177.23,62.59 177.39,60.57 177.55,58.48 177.72,56.41 177.88,54.50 178.04,52.73 178.20,52.73 178.37,52.73 178.53,52.73 178.69,52.73 178.86,52.73 179.02,52.73 179.18,52.73 179.34,52.73 179.51,52.73 179.67,52.73 179.83,52.73 180.00,52.73 180.16,52.73 180.32,52.73 180.48,52.73 180.65,52.73 180.81,52.73 180.97,52.73 181.14,52.73 181.30,52.73 181.46,52.73 181.62,52.73 181.79,52.73 181.95,52.73 182.11,52.73 182.28,52.73 182.44,52.73 182.60,52.73 182.76,52.73 182.93,54.47 183.09,56.48 183.25,56.48 183.42,56.48 183.58,56.48 183.74,56.48 183.90,57.90 184.07,59.31 184.23,59.31 184.39,58.86 184.56,57.23 184.72,57.23 184.88,57.23 185.05,57.23 185.21,58.80 185.37,60.40 185.53,62.02 185.70,63.60 185.86,63.60 186.02,63.60 186.19,63.60 186.35,63.60 186.51,63.60 186.67,65.05 186.84,66.79 187.00,68.32 187.16,68.32 187.33,68.32 187.49,68.32 187.65,68.32 187.81,68.32 187.98,68.32 188.14,68.32 188.30,68.32 188.47,68.32 188.63,70.36 188.79,71.92 188.95,73.63 189.12,75.57 189.28,77.55 189.44,79.51 189.61,81.85 189.77,84.15 189.93,86.27 190.09,88.27 190.26,91.34 190.42,91.34 190.58,91.34 190.75,91.34 190.91,91.34 191.07,93.35 191.23,95.44 191.40,97.51 191.56,99.43 191.72,101.19 191.89,101.19 192.05,101.19 192.21,101.19 192.37,101.19 192.54,101.19 192.70,101.19 192.86,101.19 193.03,101.19 193.19,101.19 193.35,101.19 193.51,101.19 193.68,101.19 193.84,101.19 194.00,101.19 194.17,101.19 194.33,101.19 194.49,101.19 194.66,101.19 194.82,101.19 194.98,101.19 195.14,101.19 195.31,101.19 195.47,101.19 195.63,101.19 195.80,101.19 195.96,101.19 196.12,101.19 196.28,101.19 196.45,101.19 196.61,101.19 196.77,101.19 196.94,101.19 197.10,99.74 197.26,99.74 197.42,99.74 197.59,99.74 197.75,99.74 197.91,101.41 198.08,103.28 198.24,104.91 198.40,104.91 198.56,104.91 198.73,104.91 198.89,104.91 199.05,104.91 199.22,104.91 199.38,104.91 199.54,104.91 199.70,104.91 199.87,104.91 200.03,104.91 200.19,104.91 200.36,104.91 200.52,104.91 200.68,104.91 200.84,104.91 201.01,104.91 201.17,104.91 201.33,104.91 201.50,104.91 201.66,104.91 201.82,104.91 201.98,104.91 202.15,104.91 202.31,104.91 202.47,104.91 202.64,104.91 202.80,104.91 202.96,104.91 203.13,104.91 203.29,104.91 203.45,104.91 203.61,104.91 203.78,104.91 203.94,103.45 204.10,101.86 204.27,100.33 204.43,100.33 204.59,100.33 204.75,100.33 204.92,100.33 205.08,100.33 205.24,100.33 205.41,100.33 205.57,98.13 205.73,96.01 205.89,94.35 206.06,94.35 206.22,94.35 206.38,94.35 206.55,94.35 206.71,94.35 206.87,94.35 207.03,92.38 207.20,90.40 207.36,88.67 207.52,87.02 207.69,87.02 207.85,87.02 208.01,87.02 208.17,85.24 208.34,83.08 208.50,81.03 208.66,79.19 208.83,77.24 208.99,75.17 209.15,75.17 209.31,75.17 209.48,75.17 209.64,75.17 209.80,75.17 209.97,75.17 210.13,73.36 210.29,71.33 210.45,69.20 210.62,67.21 210.78,66.45 210.94,64.30 211.11,62.36 211.27,60.47 211.43,58.43 211.59,56.05 211.76,53.71 211.92,51.52 212.08,49.77 212.25,49.77 212.41,49.77 212.57,49.77 212.74,49.77 212.90,49.77 213.06,49.77 213.22,47.28 213.39,44.94 213.55,43.38 213.71,41.75 213.88,39.74 214.04,39.74 214.20,39.74 214.36,39.74 214.53,37.34 214.69,34.93 214.85,33.07 215.02,33.07 215.18,31.65 215.34,29.48 215.50,26.50 215.67,23.42 215.83,20.49 215.99,20.49 216.16,20.49 216.32,20.49 216.48,20.49 216.64,18.81 216.81,17.06 216.97,15.43 217.13,13.89 217.30,12.42 217.46,12.42 217.62,13.89 217.78,15.47 217.95,17.00 218.11,17.00 218.27,17.00 218.44,17.00 218.60,15.55 218.76,14.05 218.92,11.78 "
       style="stroke-width: 1.07; stroke-linecap: butt;"
       id="polyline107" />
    <polyline
       points="219.41,10.32 219.58,10.51 219.74,10.51 "
       style="stroke-width: 1.07; stroke-linecap: butt;"
       id="polyline109" />
    <polyline
       points="220.88,11.55 221.04,13.27 221.20,14.93 221.37,14.93 221.53,14.93 221.69,14.93 221.86,16.71 222.02,18.87 222.18,20.92 222.35,22.76 222.51,24.71 222.67,26.78 222.83,26.78 223.00,26.78 223.16,26.78 223.32,26.78 223.49,26.78 223.65,26.78 223.81,28.58 223.97,30.62 224.14,32.74 224.30,34.74 224.46,36.95 224.63,39.09 224.79,41.04 224.95,42.93 225.11,44.96 225.28,47.35 225.44,49.69 225.60,51.88 225.77,53.63 225.93,53.63 226.09,53.63 226.25,53.63 226.42,53.63 226.58,53.63 226.74,53.63 226.91,56.12 227.07,58.46 227.23,60.02 227.39,61.65 227.56,63.66 227.72,63.66 227.88,63.66 228.05,63.66 228.21,66.05 228.37,68.46 228.53,70.32 228.70,70.32 228.86,71.74 229.02,73.92 229.19,76.89 229.35,79.98 229.51,82.91 229.67,82.91 229.84,82.91 230.00,82.91 230.16,82.91 230.33,84.59 230.49,86.34 230.65,87.97 230.81,89.51 230.98,90.97 231.14,90.97 231.30,90.97 "
       style="stroke-width: 1.07; stroke-linecap: butt;"
       id="polyline111" />
    <polyline
       points="166.97,106.36 167.13,106.36 167.29,106.36 167.45,106.36 167.62,106.36 167.78,106.36 167.94,106.36 168.11,106.36 168.27,106.36 168.43,106.36 168.59,106.36 168.76,106.36 168.92,106.36 169.08,106.36 169.25,104.62 169.41,102.61 169.57,102.61 169.73,102.61 169.90,102.61 170.06,102.61 170.22,101.19 170.39,99.78 170.55,98.11 170.71,96.69 170.87,96.69 171.04,96.69 171.20,96.69 171.36,96.69 171.53,95.12 171.69,93.52 171.85,91.91 172.01,90.32 172.18,90.32 172.34,90.32 172.50,90.32 172.67,90.32 172.83,90.32 172.99,88.87 173.15,87.14 173.32,85.60 173.48,85.60 173.64,85.60 173.81,85.60 173.97,85.60 174.13,85.60 174.29,85.60 174.46,85.60 174.62,85.60 174.78,85.60 174.95,83.57 175.11,82.01 175.27,80.30 175.44,78.35 175.60,76.37 175.76,74.41 175.92,72.07 176.09,69.77 176.25,67.65 176.41,65.65 176.58,62.59 176.74,62.59 176.90,62.59 177.06,62.59 177.23,62.59 177.39,60.57 177.55,58.48 177.72,56.41 177.88,54.50 178.04,52.73 178.20,52.73 178.37,52.73 178.53,52.73 178.69,52.73 178.86,52.73 179.02,52.73 179.18,52.73 179.34,52.73 179.51,52.73 179.67,52.73 179.83,52.73 180.00,52.73 180.16,52.73 180.32,52.73 180.48,52.73 180.65,52.73 180.81,52.73 180.97,52.73 181.14,52.73 181.30,52.73 181.46,52.73 181.62,52.73 181.79,52.73 181.95,52.73 182.11,52.73 182.28,52.73 182.44,52.73 182.60,52.73 182.76,52.73 182.93,52.73 183.09,52.73 183.25,52.73 183.42,52.73 183.58,52.73 183.74,52.73 183.90,52.73 184.07,52.73 184.23,52.73 184.39,52.73 184.56,52.73 184.72,52.73 184.88,52.73 185.05,52.73 185.21,52.73 185.37,52.73 185.53,52.73 185.70,52.73 185.86,52.73 186.02,52.73 186.19,52.73 186.35,52.73 186.51,52.73 186.67,52.73 186.84,52.73 187.00,52.73 187.16,52.73 187.33,52.73 187.49,52.73 187.65,52.73 187.81,52.73 187.98,52.73 188.14,52.73 188.30,52.73 188.47,52.73 188.63,52.73 188.79,52.73 188.95,52.73 189.12,52.73 189.28,52.73 189.44,52.73 189.61,52.73 189.77,52.73 189.93,52.73 190.09,52.73 190.26,52.73 190.42,52.73 190.58,52.73 190.75,52.73 190.91,52.73 191.07,52.73 191.23,52.73 191.40,52.73 191.56,52.73 191.72,52.73 191.89,52.73 192.05,52.73 192.21,52.73 192.37,52.73 192.54,52.73 192.70,52.73 192.86,52.73 193.03,52.73 193.19,52.73 193.35,52.73 193.51,52.73 193.68,52.73 193.84,52.73 194.00,52.73 194.17,52.73 194.33,52.73 194.49,52.73 194.66,52.73 194.82,52.73 194.98,52.73 195.14,52.73 195.31,52.73 195.47,52.73 195.63,52.73 195.80,52.73 195.96,52.73 196.12,52.73 196.28,52.73 196.45,52.73 196.61,52.73 196.77,52.73 196.94,52.73 197.10,52.73 197.26,52.73 197.42,52.73 197.59,52.73 197.75,52.73 197.91,52.73 198.08,52.73 198.24,52.73 198.40,52.73 198.56,52.73 198.73,52.73 198.89,52.73 199.05,52.73 199.22,52.73 199.38,52.73 199.54,52.73 199.70,52.73 199.87,52.73 200.03,52.73 200.19,52.73 200.36,52.73 200.52,52.73 200.68,52.73 200.84,52.73 201.01,52.73 201.17,52.73 201.33,52.73 201.50,52.73 201.66,52.73 201.82,52.73 201.98,52.73 202.15,52.73 202.31,52.73 202.47,52.73 202.64,52.73 202.80,52.73 202.96,52.73 203.13,52.73 203.29,52.73 203.45,52.73 203.61,52.73 203.78,52.73 203.94,52.73 204.10,52.73 204.27,52.73 204.43,52.73 204.59,52.73 204.75,52.73 204.92,52.73 205.08,52.73 205.24,52.73 205.41,52.73 205.57,52.73 205.73,52.73 205.89,52.73 206.06,52.73 206.22,52.73 206.38,52.73 206.55,52.73 206.71,52.73 206.87,52.73 207.03,52.73 207.20,52.73 207.36,52.73 207.52,52.73 207.69,52.73 207.85,52.73 208.01,52.73 208.17,52.73 208.34,52.73 208.50,52.73 208.66,52.73 208.83,52.73 208.99,52.73 209.15,52.73 209.31,52.73 209.48,52.73 209.64,52.73 209.80,52.73 209.97,52.73 210.13,52.73 210.29,52.73 210.45,52.73 210.62,52.73 210.78,52.73 210.94,52.73 211.11,52.73 211.27,52.73 211.43,52.73 211.59,52.73 211.76,52.73 211.92,51.52 212.08,49.77 212.25,49.77 212.41,49.77 212.57,49.77 212.74,49.77 212.90,49.77 213.06,49.77 213.22,47.28 213.39,44.94 213.55,43.38 213.71,41.75 213.88,39.74 214.04,39.74 214.20,39.74 214.36,39.74 214.53,37.34 214.69,34.93 214.85,33.07 215.02,33.07 215.18,31.65 215.34,29.48 215.50,26.50 215.67,23.42 215.83,20.49 215.99,20.49 216.16,20.49 216.32,20.49 216.48,20.49 216.64,18.81 216.81,17.06 216.97,15.43 217.13,13.89 217.30,12.42 217.46,12.42 217.62,12.42 217.78,12.42 217.95,12.42 218.11,12.42 218.27,12.42 218.44,12.42 218.60,12.42 218.76,12.42 218.92,11.78 "
       style="stroke-width: 1.07; stroke: #FF0000; stroke-linecap: butt;"
       id="polyline113" />
    <rect
       x="163.75"
       y="5.48"
       width="70.77"
       height="105.68"
       style="stroke-width: 1.07;"
       id="rect115" />
  </g>
  <g
     clip-path="url(#cpMC4wMHwzNjAuMDB8MC4wMHwxNDQuMDA=)"
     id="g167">
    <polyline
       points="163.75,111.16 163.75,5.48 "
       style="stroke-width: 1.07; stroke-linecap: butt;"
       id="polyline119" />
    <text
       x="158.82"
       y="109.57"
       text-anchor="end"
       style="font-size: 8.80px; fill: #4D4D4D; font-family: Arial;"
       textLength="13.98px"
       lengthAdjust="spacingAndGlyphs"
       id="text121">0.0</text>
    <text
       x="158.82"
       y="85.55"
       text-anchor="end"
       style="font-size: 8.80px; fill: #4D4D4D; font-family: Arial;"
       textLength="13.98px"
       lengthAdjust="spacingAndGlyphs"
       id="text123">2.5</text>
    <text
       x="158.82"
       y="61.53"
       text-anchor="end"
       style="font-size: 8.80px; fill: #4D4D4D; font-family: Arial;"
       textLength="13.98px"
       lengthAdjust="spacingAndGlyphs"
       id="text125">5.0</text>
    <text
       x="158.82"
       y="37.51"
       text-anchor="end"
       style="font-size: 8.80px; fill: #4D4D4D; font-family: Arial;"
       textLength="13.98px"
       lengthAdjust="spacingAndGlyphs"
       id="text127">7.5</text>
    <text
       x="158.82"
       y="13.49"
       text-anchor="end"
       style="font-size: 8.80px; fill: #4D4D4D; font-family: Arial;"
       textLength="19.58px"
       lengthAdjust="spacingAndGlyphs"
       id="text129">10.0</text>
    <polyline
       points="161.01,106.36 163.75,106.36 "
       style="stroke-width: 1.07; stroke: #333333; stroke-linecap: butt;"
       id="polyline131" />
    <polyline
       points="161.01,82.34 163.75,82.34 "
       style="stroke-width: 1.07; stroke: #333333; stroke-linecap: butt;"
       id="polyline133" />
    <polyline
       points="161.01,58.32 163.75,58.32 "
       style="stroke-width: 1.07; stroke: #333333; stroke-linecap: butt;"
       id="polyline135" />
    <polyline
       points="161.01,34.30 163.75,34.30 "
       style="stroke-width: 1.07; stroke: #333333; stroke-linecap: butt;"
       id="polyline137" />
    <polyline
       points="161.01,10.28 163.75,10.28 "
       style="stroke-width: 1.07; stroke: #333333; stroke-linecap: butt;"
       id="polyline139" />
    <text
       x="199.13"
       y="135.52"
       text-anchor="middle"
       style="font-size: 11.00px; font-family: Arial;"
       textLength="3.50px"
       lengthAdjust="spacingAndGlyphs"
       id="text163" />
  </g>
  <defs
     id="defs172">
    <clipPath
       id="cpMjQwLjAwfDM2MC4wMHwwLjAwfDE0NC4wMA==">
      <rect
         x="240.00"
         y="0.00"
         width="120.00"
         height="144.00"
         id="rect169" />
    </clipPath>
  </defs>
  <g
     clip-path="url(#cpMjQwLjAwfDM2MC4wMHwwLjAwfDE0NC4wMA==)"
     id="g176">
    <rect
       x="240.00"
       y="0.00"
       width="120.00"
       height="144.00"
       style="stroke-width: 1.07; stroke: #FFFFFF; fill: #FFFFFF;"
       id="rect174" />
  </g>
  <g
     clip-path="url(#cpMC4wMHwzNjAuMDB8MC4wMHwxNDQuMDA=)"
     id="g178" />
  <defs
     id="defs183">
    <clipPath
       id="cpMjgzLjc1fDM1NC41Mnw1LjQ4fDExMS4xNg==">
      <rect
         x="283.75"
         y="5.48"
         width="70.77"
         height="105.68"
         id="rect180" />
    </clipPath>
  </defs>
  <g
     clip-path="url(#cpMjgzLjc1fDM1NC41Mnw1LjQ4fDExMS4xNg==)"
     id="g215">
    <rect
       x="283.75"
       y="5.48"
       width="70.77"
       height="105.68"
       style="stroke-width: 1.07; stroke: none; fill: #FFFFFF;"
       id="rect185" />
    <line
       x1="251.49"
       y1="111.16"
       x2="251.49"
       y2="5.48"
       style="stroke-width: 1.07; stroke-dasharray: 5.69,5.69; stroke-linecap: butt;"
       id="line187" />
    <line
       x1="251.77"
       y1="111.16"
       x2="251.77"
       y2="5.48"
       style="stroke-width: 1.07; stroke-dasharray: 5.69,5.69; stroke-linecap: butt;"
       id="line189" />
    <line
       x1="302.03"
       y1="111.16"
       x2="302.03"
       y2="5.48"
       style="stroke-width: 1.07; stroke-dasharray: 5.69,5.69; stroke-linecap: butt;"
       id="line191" />
    <line
       x1="336.38"
       y1="111.16"
       x2="336.38"
       y2="5.48"
       style="stroke-width: 1.07; stroke-dasharray: 5.69,5.69; stroke-linecap: butt;"
       id="line201" />
    <polyline
       points="286.97,106.36 287.11,106.36 287.25,106.36 287.39,106.36 287.53,106.36 287.67,106.36 287.81,106.36 287.95,106.36 288.09,106.36 288.23,106.36 288.37,106.36 288.51,106.36 288.65,106.36 288.80,106.36 288.94,106.36 289.08,106.36 289.22,106.36 289.36,106.36 289.50,106.36 289.64,106.36 289.78,106.36 289.92,104.92 290.06,103.24 290.20,101.57 290.34,99.99 290.48,98.61 290.63,98.61 290.77,98.61 290.91,98.61 291.05,98.61 291.19,98.61 291.33,98.61 291.47,98.61 291.61,98.61 291.75,98.61 291.89,98.61 292.03,98.61 292.17,98.61 292.32,98.61 292.46,98.61 292.60,98.61 292.74,98.61 292.88,98.61 293.02,98.61 293.16,98.61 293.30,98.61 293.44,98.61 293.58,98.61 293.72,97.02 293.86,95.50 294.00,94.12 294.15,94.12 294.29,92.47 294.43,90.80 294.57,88.94 294.71,87.09 294.85,85.71 294.99,85.71 295.13,84.29 295.27,84.29 295.41,82.57 295.55,80.71 295.69,79.07 295.83,77.62 295.98,75.81 296.12,73.83 296.26,71.68 296.40,69.68 296.54,68.15 296.68,66.62 296.82,65.16 296.96,63.71 297.10,62.33 297.24,62.33 297.38,60.91 297.52,59.50 297.66,59.50 297.81,59.50 297.95,59.50 298.09,59.50 298.23,59.50 298.37,59.50 298.51,59.50 298.65,59.50 298.79,59.50 298.93,59.50 299.07,59.50 299.21,59.50 299.35,59.50 299.50,57.90 299.64,56.25 299.78,56.25 299.92,54.87 300.06,52.99 300.20,50.86 300.34,48.56 300.48,46.66 300.62,45.00 300.76,43.50 300.90,42.05 301.04,40.63 301.18,40.63 301.33,40.63 301.47,40.63 301.61,40.63 301.75,42.06 301.89,42.17 302.03,43.84 302.17,45.43 302.31,46.81 302.45,46.81 302.59,46.81 302.73,46.81 302.87,46.81 303.01,46.81 303.16,46.81 303.30,46.81 303.44,46.81 303.58,46.81 303.72,46.81 303.86,46.81 304.00,46.81 304.14,46.81 304.28,46.81 304.42,46.81 304.56,46.81 304.70,46.81 304.84,46.81 304.99,46.81 305.13,46.81 305.27,46.81 305.41,46.81 305.55,48.39 305.69,49.91 305.83,51.29 305.97,51.29 306.11,52.94 306.25,54.61 306.39,56.47 306.53,58.32 306.68,59.70 306.82,59.70 306.96,61.12 307.10,61.12 307.24,62.84 307.38,64.71 307.52,66.35 307.66,67.80 307.80,69.60 307.94,71.58 308.08,73.73 308.22,75.73 308.36,77.26 308.51,78.79 308.65,80.26 308.79,81.70 308.93,83.08 309.07,83.08 309.21,84.51 309.35,85.91 309.49,85.91 309.63,85.91 309.77,85.91 309.91,85.91 310.05,85.91 310.19,85.91 310.34,85.91 310.48,85.91 310.62,85.91 310.76,85.91 310.90,85.91 311.04,85.91 311.18,85.91 311.32,87.51 311.46,89.17 311.60,89.17 311.74,90.55 311.88,92.42 312.02,94.56 312.17,96.86 312.31,98.76 312.45,100.41 312.59,101.92 312.73,103.37 312.87,104.79 313.01,104.79 313.15,104.79 313.29,104.79 313.43,104.79 313.57,104.79 313.71,106.36 313.86,106.36 314.00,106.36 314.14,106.36 314.28,106.36 314.42,106.36 314.56,106.36 314.70,106.36 314.84,106.36 314.98,106.36 315.12,106.36 315.26,106.36 315.40,106.36 315.54,106.36 315.69,106.36 315.83,106.36 315.97,106.36 316.11,106.36 316.25,106.36 316.39,106.36 316.53,106.36 316.67,106.36 316.81,106.36 316.95,106.36 317.09,106.36 317.23,106.36 317.37,106.36 317.52,106.36 317.66,104.97 317.80,103.48 317.94,101.79 318.08,100.04 318.22,98.42 318.36,98.42 318.50,96.94 318.64,96.94 318.78,96.94 318.92,96.94 319.06,96.94 319.20,96.94 319.35,96.94 319.49,96.94 319.63,96.94 319.77,95.49 319.91,93.99 320.05,92.50 320.19,90.99 320.33,89.30 320.47,87.53 320.61,85.76 320.75,83.92 320.89,82.21 321.04,80.53 321.18,78.82 321.32,76.95 321.46,74.98 321.60,72.94 321.74,70.83 321.88,68.87 322.02,67.01 322.16,64.99 322.30,62.93 322.44,61.05 322.58,59.13 322.72,57.16 322.87,54.98 323.01,52.73 323.15,50.98 323.29,49.38 323.43,47.76 323.57,46.33 323.71,44.60 323.85,42.83 323.99,42.83 324.13,42.83 324.27,42.83 324.41,41.21 324.55,39.41 324.70,37.77 324.84,36.17 324.98,34.75 325.12,34.75 325.26,34.75 325.40,34.75 325.54,33.31 325.68,33.31 325.82,33.31 325.96,33.31 326.10,33.31 326.24,33.31 326.38,33.31 326.53,33.31 326.67,33.31 326.81,33.31 326.95,33.31 327.09,33.31 327.23,33.31 327.37,33.31 327.51,33.31 327.65,33.31 327.79,33.31 327.93,33.31 328.07,33.31 328.22,33.31 328.36,33.31 328.50,33.31 328.64,33.31 328.78,33.31 328.92,33.31 329.06,31.90 329.20,30.21 329.34,28.26 329.48,28.10 329.62,29.59 329.76,31.27 329.90,33.02 330.05,34.65 330.19,34.65 330.33,34.54 330.47,32.06 330.61,29.78 330.75,27.83 330.89,27.83 331.03,27.83 331.17,27.83 331.31,27.83 331.45,27.83 331.59,29.28 331.73,30.78 331.88,32.27 332.02,33.78 332.16,35.47 332.30,37.24 332.44,39.02 332.58,40.85 332.72,42.56 332.86,44.24 333.00,45.95 333.14,47.83 333.28,49.80 333.42,51.83 333.56,53.94 333.71,55.90 333.85,57.76 333.99,59.78 334.13,61.84 334.27,63.72 334.41,65.64 334.55,67.61 334.69,69.79 334.83,72.05 334.97,73.80 335.11,75.40 335.25,77.01 335.40,78.44 335.54,80.17 335.68,81.95 335.82,81.95 335.96,81.95 336.10,81.95 336.24,83.56 336.38,85.36 336.52,87.01 336.66,88.61 336.80,90.03 336.94,90.03 337.08,90.03 337.23,90.03 337.37,91.46 337.51,91.46 337.65,91.46 337.79,91.46 337.93,91.46 338.07,91.46 338.21,91.46 338.35,91.46 338.49,91.46 338.63,91.46 338.77,91.46 338.91,91.46 339.06,91.46 339.20,91.46 339.34,91.46 339.48,91.46 339.62,91.46 339.76,91.46 339.90,91.46 340.04,91.46 340.18,91.46 340.32,91.46 340.46,91.46 340.60,91.46 340.74,91.46 340.89,92.87 341.03,94.57 341.17,96.51 341.31,98.07 341.45,98.07 341.59,98.07 341.73,98.07 341.87,98.07 342.01,98.07 342.15,99.65 342.29,102.13 342.43,104.42 342.58,106.36 342.72,106.36 342.86,106.36 343.00,106.36 343.14,106.36 343.28,106.36 343.42,106.36 343.56,106.36 343.70,106.36 343.84,106.36 343.98,106.36 344.12,106.36 344.26,106.36 344.41,106.36 344.55,106.36 344.69,106.36 344.83,106.36 344.97,106.36 345.11,106.36 345.25,106.36 345.39,106.36 345.53,106.36 345.67,106.36 345.81,106.36 345.95,106.36 346.09,106.36 346.24,106.36 346.38,106.36 346.52,106.36 346.66,106.36 346.80,106.36 346.94,106.36 347.08,106.36 347.22,106.36 347.36,106.36 347.50,106.36 347.64,106.36 347.78,106.36 347.92,106.36 348.07,106.36 348.21,106.36 348.35,106.36 348.49,106.36 348.63,106.36 348.77,106.36 348.91,106.36 349.05,106.36 349.19,106.36 349.33,106.36 349.47,106.36 349.61,106.36 349.75,106.36 349.90,106.36 350.04,106.36 350.18,106.36 350.32,106.36 350.46,106.36 350.60,106.36 350.74,106.36 350.88,106.36 351.02,106.36 351.16,106.36 351.30,106.36 "
       style="stroke-width: 1.07; stroke-linecap: butt;"
       id="polyline209" />
    <polyline
       points="286.97,106.36 287.11,106.36 287.25,106.36 287.39,106.36 287.53,106.36 287.67,106.36 287.81,106.36 287.95,106.36 288.09,106.36 288.23,106.36 288.37,106.36 288.51,106.36 288.65,106.36 288.80,106.36 288.94,106.36 289.08,106.36 289.22,106.36 289.36,106.36 289.50,106.36 289.64,106.36 289.78,106.36 289.92,104.92 290.06,103.24 290.20,101.57 290.34,99.99 290.48,98.61 290.63,98.61 290.77,98.61 290.91,98.61 291.05,98.61 291.19,98.61 291.33,98.61 291.47,98.61 291.61,98.61 291.75,98.61 291.89,98.61 292.03,98.61 292.17,98.61 292.32,98.61 292.46,98.61 292.60,98.61 292.74,98.61 292.88,98.61 293.02,98.61 293.16,98.61 293.30,98.61 293.44,98.61 293.58,98.61 293.72,97.02 293.86,95.50 294.00,94.12 294.15,94.12 294.29,92.47 294.43,90.80 294.57,88.94 294.71,87.09 294.85,85.71 294.99,85.71 295.13,84.29 295.27,84.29 295.41,82.57 295.55,80.71 295.69,79.07 295.83,77.62 295.98,75.81 296.12,73.83 296.26,71.68 296.40,69.68 296.54,68.15 296.68,66.62 296.82,65.16 296.96,63.71 297.10,62.33 297.24,62.33 297.38,60.91 297.52,59.50 297.66,59.50 297.81,59.50 297.95,59.50 298.09,59.50 298.23,59.50 298.37,59.50 298.51,59.50 298.65,59.50 298.79,59.50 298.93,59.50 299.07,59.50 299.21,59.50 299.35,59.50 299.50,57.90 299.64,56.25 299.78,56.25 299.92,54.87 300.06,52.99 300.20,50.86 300.34,48.56 300.48,46.66 300.62,45.00 300.76,43.50 300.90,42.05 301.04,40.63 301.18,40.63 301.33,40.63 301.47,40.63 301.61,40.63 301.75,40.63 301.89,40.63 302.03,40.63 302.17,40.63 302.31,40.63 302.45,40.63 302.59,40.63 302.73,40.63 302.87,40.63 303.01,40.63 303.16,40.63 303.30,40.63 303.44,40.63 303.58,40.63 303.72,40.63 303.86,40.63 304.00,40.63 304.14,40.63 304.28,40.63 304.42,40.63 304.56,40.63 304.70,40.63 304.84,40.63 304.99,40.63 305.13,40.63 305.27,40.63 305.41,40.63 305.55,40.63 305.69,40.63 305.83,40.63 305.97,40.63 306.11,40.63 306.25,40.63 306.39,40.63 306.53,40.63 306.68,40.63 306.82,40.63 306.96,40.63 307.10,40.63 307.24,40.63 307.38,40.63 307.52,40.63 307.66,40.63 307.80,40.63 307.94,40.63 308.08,40.63 308.22,40.63 308.36,40.63 308.51,40.63 308.65,40.63 308.79,40.63 308.93,40.63 309.07,40.63 309.21,40.63 309.35,40.63 309.49,40.63 309.63,40.63 309.77,40.63 309.91,40.63 310.05,40.63 310.19,40.63 310.34,40.63 310.48,40.63 310.62,40.63 310.76,40.63 310.90,40.63 311.04,40.63 311.18,40.63 311.32,40.63 311.46,40.63 311.60,40.63 311.74,40.63 311.88,40.63 312.02,40.63 312.17,40.63 312.31,40.63 312.45,40.63 312.59,40.63 312.73,40.63 312.87,40.63 313.01,40.63 313.15,40.63 313.29,40.63 313.43,40.63 313.57,40.63 313.71,40.63 313.86,40.63 314.00,40.63 314.14,40.63 314.28,40.63 314.42,40.63 314.56,40.63 314.70,40.63 314.84,40.63 314.98,40.63 315.12,40.63 315.26,40.63 315.40,40.63 315.54,40.63 315.69,40.63 315.83,40.63 315.97,40.63 316.11,40.63 316.25,40.63 316.39,40.63 316.53,40.63 316.67,40.63 316.81,40.63 316.95,40.63 317.09,40.63 317.23,40.63 317.37,40.63 317.52,40.63 317.66,40.63 317.80,40.63 317.94,40.63 318.08,40.63 318.22,40.63 318.36,40.63 318.50,40.63 318.64,40.63 318.78,40.63 318.92,40.63 319.06,40.63 319.20,40.63 319.35,40.63 319.49,40.63 319.63,40.63 319.77,40.63 319.91,40.63 320.05,40.63 320.19,40.63 320.33,40.63 320.47,40.63 320.61,40.63 320.75,40.63 320.89,40.63 321.04,40.63 321.18,40.63 321.32,40.63 321.46,40.63 321.60,40.63 321.74,40.63 321.88,40.63 322.02,40.63 322.16,40.63 322.30,40.63 322.44,40.63 322.58,40.63 322.72,40.63 322.87,40.63 323.01,40.63 323.15,40.63 323.29,40.63 323.43,40.63 323.57,40.63 323.71,40.63 323.85,40.63 323.99,40.63 324.13,40.63 324.27,40.63 324.41,40.63 324.55,39.41 324.70,37.77 324.84,36.17 324.98,34.75 325.12,34.75 325.26,34.75 325.40,34.75 325.54,33.31 325.68,33.31 325.82,33.31 325.96,33.31 326.10,33.31 326.24,33.31 326.38,33.31 326.53,33.31 326.67,33.31 326.81,33.31 326.95,33.31 327.09,33.31 327.23,33.31 327.37,33.31 327.51,33.31 327.65,33.31 327.79,33.31 327.93,33.31 328.07,33.31 328.22,33.31 328.36,33.31 328.50,33.31 328.64,33.31 328.78,33.31 328.92,33.31 329.06,31.90 329.20,30.21 329.34,28.26 329.48,28.10 329.62,28.10 329.76,28.10 329.90,28.10 330.05,28.10 330.19,28.10 330.33,28.10 330.47,28.10 330.61,28.10 330.75,27.83 330.89,27.83 331.03,27.83 331.17,27.83 331.31,27.83 331.45,27.83 331.59,27.83 331.73,27.83 331.88,27.83 332.02,27.83 332.16,27.83 332.30,27.83 332.44,27.83 332.58,27.83 332.72,27.83 332.86,27.83 333.00,27.83 333.14,27.83 333.28,27.83 333.42,27.83 333.56,27.83 333.71,27.83 333.85,27.83 333.99,27.83 334.13,27.83 334.27,27.83 334.41,27.83 334.55,27.83 334.69,27.83 334.83,27.83 334.97,27.83 335.11,27.83 335.25,27.83 335.40,27.83 335.54,27.83 335.68,27.83 335.82,27.83 335.96,27.83 336.10,27.83 336.24,27.83 336.38,27.83 336.52,27.83 336.66,27.83 336.80,27.83 336.94,27.83 337.08,27.83 337.23,27.83 337.37,27.83 337.51,27.83 337.65,27.83 337.79,27.83 337.93,27.83 338.07,27.83 338.21,27.83 338.35,27.83 338.49,27.83 338.63,27.83 338.77,27.83 338.91,27.83 339.06,27.83 339.20,27.83 339.34,27.83 339.48,27.83 339.62,27.83 339.76,27.83 339.90,27.83 340.04,27.83 340.18,27.83 340.32,27.83 340.46,27.83 340.60,27.83 340.74,27.83 340.89,27.83 341.03,27.83 341.17,27.83 341.31,27.83 341.45,27.83 341.59,27.83 341.73,27.83 341.87,27.83 342.01,27.83 342.15,27.83 342.29,27.83 342.43,27.83 342.58,27.83 342.72,27.83 342.86,27.83 343.00,27.83 343.14,27.83 343.28,27.83 343.42,27.83 343.56,27.83 343.70,27.83 343.84,27.83 343.98,27.83 344.12,27.83 344.26,27.83 344.41,27.83 344.55,27.83 344.69,27.83 344.83,27.83 344.97,27.83 345.11,27.83 345.25,27.83 345.39,27.83 345.53,27.83 345.67,27.83 345.81,27.83 345.95,27.83 346.09,27.83 346.24,27.83 346.38,27.83 346.52,27.83 346.66,27.83 346.80,27.83 346.94,27.83 347.08,27.83 347.22,27.83 347.36,27.83 347.50,27.83 347.64,27.83 347.78,27.83 347.92,27.83 348.07,27.83 348.21,27.83 348.35,27.83 348.49,27.83 348.63,27.83 348.77,27.83 348.91,27.83 349.05,27.83 349.19,27.83 349.33,27.83 349.47,27.83 349.61,27.83 349.75,27.83 349.90,27.83 350.04,27.83 350.18,27.83 350.32,27.83 350.46,27.83 350.60,27.83 350.74,27.83 350.88,27.83 351.02,27.83 351.16,27.83 351.30,27.83 "
       style="stroke-width: 1.07; stroke: #FF0000; stroke-linecap: butt;"
       id="polyline211" />
    <rect
       x="283.75"
       y="5.48"
       width="70.77"
       height="105.68"
       style="stroke-width: 1.07;"
       id="rect213" />
  </g>
  <g
     clip-path="url(#cpMC4wMHwzNjAuMDB8MC4wMHwxNDQuMDA=)"
     id="g265">
    <polyline
       points="283.75,111.16 283.75,5.48 "
       style="stroke-width: 1.07; stroke-linecap: butt;"
       id="polyline217" />
    <text
       x="278.82"
       y="109.57"
       text-anchor="end"
       style="font-size: 8.80px; fill: #4D4D4D; font-family: Arial;"
       textLength="13.98px"
       lengthAdjust="spacingAndGlyphs"
       id="text219">0.0</text>
    <text
       x="278.82"
       y="85.55"
       text-anchor="end"
       style="font-size: 8.80px; fill: #4D4D4D; font-family: Arial;"
       textLength="13.98px"
       lengthAdjust="spacingAndGlyphs"
       id="text221">2.5</text>
    <text
       x="278.82"
       y="61.53"
       text-anchor="end"
       style="font-size: 8.80px; fill: #4D4D4D; font-family: Arial;"
       textLength="13.98px"
       lengthAdjust="spacingAndGlyphs"
       id="text223">5.0</text>
    <text
       x="278.82"
       y="37.51"
       text-anchor="end"
       style="font-size: 8.80px; fill: #4D4D4D; font-family: Arial;"
       textLength="13.98px"
       lengthAdjust="spacingAndGlyphs"
       id="text225">7.5</text>
    <text
       x="278.82"
       y="13.49"
       text-anchor="end"
       style="font-size: 8.80px; fill: #4D4D4D; font-family: Arial;"
       textLength="19.58px"
       lengthAdjust="spacingAndGlyphs"
       id="text227">10.0</text>
    <polyline
       points="281.01,106.36 283.75,106.36 "
       style="stroke-width: 1.07; stroke: #333333; stroke-linecap: butt;"
       id="polyline229" />
    <polyline
       points="281.01,82.34 283.75,82.34 "
       style="stroke-width: 1.07; stroke: #333333; stroke-linecap: butt;"
       id="polyline231" />
    <polyline
       points="281.01,58.32 283.75,58.32 "
       style="stroke-width: 1.07; stroke: #333333; stroke-linecap: butt;"
       id="polyline233" />
    <polyline
       points="281.01,34.30 283.75,34.30 "
       style="stroke-width: 1.07; stroke: #333333; stroke-linecap: butt;"
       id="polyline235" />
    <polyline
       points="281.01,10.28 283.75,10.28 "
       style="stroke-width: 1.07; stroke: #333333; stroke-linecap: butt;"
       id="polyline237" />
    <text
       x="319.13"
       y="135.52"
       text-anchor="middle"
       style="font-size: 11.00px; font-family: Arial;"
       textLength="3.50px"
       lengthAdjust="spacingAndGlyphs"
       id="text261" />
  </g>
</svg>
